# xmcd
#
# Track frame offsets:
#	150
#	9930
#	29019
#	44839
#	49957
#	71510
#	84132
#	107050
#	117160
#	130347
#	146640
#	163390
#	176105
#	185720
#	198830
#	209445
#	229022
#	249077
#	261067
#	281970
#
# Disc length: 3897 seconds
#
# Revision: 5
# Processed by: cddbd v1.5PL3 Copyright (c) Steve Scherf et al.
# Submitted via: audiograbber 1.81.03
#
DISCID=2c0f3714
DTITLE=Stig Møller - I Vennernes Tegn  # 1
DYEAR=1900
DGENRE=
TTITLE0=People They Don´t Know
TTITLE1=Min Undulat er død 
TTITLE2=Gørmig varm 
TTITLE3=I Love you Baby
TTITLE4=To Sjæle 
TTITLE5=Nu er jeg nået til et punkt 
TTITLE6=Hej du danske mand 
TTITLE7=God nat
TTITLE8=I Den Grønne Skov
TTITLE9=Gør Noget Nyt
TTITLE10=Jeg Ringer Og Ringer 
TTITLE11=Gennemtræk
TTITLE12=Barometret Rundt 
TTITLE13=Skovens Palmer
TTITLE14=Skovsøen
TTITLE15=Du er Min 
TTITLE16=Nina
TTITLE17=Mælkevejen
TTITLE18=Kærligheden Selv
TTITLE19=Jukebox
EXTD=\nRecord number Columbia 9734-07\n
EXTT0=
EXTT1=
EXTT2=
EXTT3=
EXTT4=
EXTT5=
EXTT6=
EXTT7=
EXTT8=
EXTT9=
EXTT10=
EXTT11=
EXTT12=
EXTT13=
EXTT14=
EXTT15=
EXTT16=
EXTT17=
EXTT18=
EXTT19=
PLAYORDER=
